<svg width="794" height="1123" viewBox="0 0 794 1123" xmlns="http://www.w3.org/2000/svg">
  <rect width="794" height="1123" fill="#c9bd89"/>
  <path d="M115 286 H603 C664 286 700 356 664 402 L523 600 H606 C667 600 702 669 664 717 L528 892 H646 C667 892 684 909 684 930 C684 951 667 968 646 968 H218 C187 968 169 932 188 907 L343 686 H180 C149 686 131 651 149 625 L289 430 H117 C96 430 79 413 79 392 C79 371 96 354 117 354 H468 C499 354 518 390 499 416 L359 610 H454 C485 610 503 646 485 672 L331 892 H646"
        fill="none" stroke="#6d2a96" stroke-width="16" stroke-linecap="round" stroke-linejoin="round"/>
  <path d="M129 300 H603 C653 300 683 357 653 395 L496 600 H579 C629 600 658 656 628 694 L494 862 H636 C650 862 661 873 661 887 C661 901 650 912 636 912 H254 C235 912 224 889 236 873 L406 646 H220 C201 646 190 624 201 608 L339 416 H131 C117 416 106 405 106 391 C106 377 117 366 131 366 H458 C477 366 489 388 477 404 L339 610 H425 C444 610 455 632 444 648 L277 892 H636"
        fill="none" stroke="#91dedb" stroke-width="10" stroke-linecap="round" stroke-linejoin="round"/>
  <path d="M149 318 H603 C643 318 666 360 643 389 L480 600 H553 C593 600 616 641 594 670 L463 839 H625 C636 839 645 848 645 859 C645 870 636 879 625 879 H287 C272 879 264 863 273 851 L447 620 H260 C245 620 236 603 244 591 L379 404 H149 C138 404 129 395 129 384 C129 373 138 364 149 364 H448 C463 364 472 380 463 392 L329 610 H405 C420 610 429 627 421 639 L246 892 H625"
        fill="none" stroke="#6d2a96" stroke-width="8" stroke-linecap="round" stroke-linejoin="round"/>
</svg>
